<svg xmlns="http://www.w3.org/2000/svg" viewBox="0 0 220 90" fill="none">
  <path d="M4 4 C 60 4, 40 44, 96 44 S 160 84, 216 84" stroke="#c9922e" stroke-width="1.4" stroke-linecap="round" opacity="0.7"/>
  <g fill="none" stroke="#c9922e" stroke-width="1.6">
    <rect x="0" y="0" width="8" height="8" transform="rotate(45 4 4)"/>
    <rect x="34" y="10" width="7" height="7" transform="rotate(45 37.5 13.5)"/>
    <rect x="62" y="26" width="7" height="7" transform="rotate(45 65.5 29.5)"/>
    <rect x="92" y="40" width="9" height="9" transform="rotate(45 96.5 44.5)"/>
    <rect x="124" y="52" width="7" height="7" transform="rotate(45 127.5 55.5)"/>
    <rect x="154" y="66" width="7" height="7" transform="rotate(45 157.5 69.5)"/>
    <rect x="188" y="78" width="8" height="8" transform="rotate(45 192 82)"/>
    <rect x="210" y="80" width="8" height="8" transform="rotate(45 214 84)"/>
  </g>
</svg>
